<svg width="136" height="136" viewBox="0 0 136 136" fill="none" xmlns="http://www.w3.org/2000/svg">
<g filter="url(#filter0_d)">
<circle cx="68" cy="57" r="40" fill="white"/>
<path d="M68 17C45.9083 17 28 34.9083 28 57C28 79.0917 45.9083 97 68 97C90.0917 97 108 79.0917 108 57C108 34.9083 90.0917 17 68 17ZM68 89.5C50.0783 89.5 35.5 74.92 35.5 57C35.5 39.08 50.0783 24.5 68 24.5C85.9217 24.5 100.5 39.0783 100.5 57C100.5 74.9217 85.92 89.5 68 89.5Z" fill="#FFAB2D"/>
<path d="M70.065 58.2983H64.8133V66.1H70.065C71.125 66.1 72.1083 65.67 72.7983 64.9483C73.52 64.2566 73.95 63.275 73.95 62.1833C73.9517 60.0483 72.2 58.2983 70.065 58.2983Z" fill="#FFAB2D"/>
<path d="M68 27.8333C51.9167 27.8333 38.8333 40.9166 38.8333 57C38.8333 73.0833 51.9167 86.1666 68 86.1666C84.0833 86.1666 97.1667 73.0816 97.1667 57C97.1667 40.9183 84.0817 27.8333 68 27.8333ZM73.935 70.5066H70.495V75.9133H66.8867V70.5066H64.905V75.9133H61.28V70.5066H54.9067V67.1133H58.4233V46.7799H54.9067V43.3866H61.28V38.0883H64.905V43.3866H66.8867V38.0883H70.495V43.3866H73.6283C75.3783 43.3866 76.9917 44.1083 78.1433 45.26C79.295 46.4116 80.0167 48.025 80.0167 49.775C80.0167 53.2 77.3133 55.995 73.935 56.1483C77.8967 56.1483 81.0917 59.3733 81.0917 63.335C81.0917 67.2816 77.8983 70.5066 73.935 70.5066Z" fill="#FFAB2D"/>
<path d="M72.385 53.5066C73.015 52.8766 73.3983 52.0316 73.3983 51.08C73.3983 49.1916 71.8633 47.655 69.9733 47.655H64.8133V54.52H69.9733C70.91 54.52 71.77 54.12 72.385 53.5066Z" fill="#FFAB2D"/>
</g>
<defs>
<filter id="filter0_d" x="0" y="0" width="136" height="136" filterUnits="userSpaceOnUse" color-interpolation-filters="sRGB">
<feFlood flood-opacity="0" result="BackgroundImageFix"/>
<feColorMatrix in="SourceAlpha" type="matrix" values="0 0 0 0 0 0 0 0 0 0 0 0 0 0 0 0 0 0 127 0"/>
<feOffset dy="11"/>
<feGaussianBlur stdDeviation="14"/>
<feColorMatrix type="matrix" values="0 0 0 0 0 0 0 0 0 0 0 0 0 0 0 0 0 0 0.25 0"/>
<feBlend mode="normal" in2="BackgroundImageFix" result="effect1_dropShadow"/>
<feBlend mode="normal" in="SourceGraphic" in2="effect1_dropShadow" result="shape"/>
</filter>
</defs>
</svg>
