<svg width="174" height="94" viewBox="0 0 174 94" fill="none" xmlns="http://www.w3.org/2000/svg">
<path d="M96.168 56.28C94.8987 56.28 93.6667 56.0747 92.472 55.664C91.296 55.2347 90.2973 54.628 89.476 53.844L91.016 51.016C92.8267 52.3413 94.4973 53.004 96.028 53.004C96.6067 53.004 97.0547 52.9107 97.372 52.724C97.6893 52.5373 97.848 52.248 97.848 51.856C97.848 51.4453 97.6333 51.156 97.204 50.988C96.7747 50.8013 96.14 50.5867 95.3 50.344C94.18 49.9707 93.2467 49.6067 92.5 49.252C91.7533 48.8973 91.1933 48.468 90.82 47.964C90.4467 47.46 90.26 46.788 90.26 45.948C90.26 44.4733 90.8107 43.288 91.912 42.392C93.0133 41.4773 94.5067 41.02 96.392 41.02C97.4 41.02 98.38 41.1787 99.332 41.496C100.303 41.8133 101.208 42.3453 102.048 43.092L100.312 45.892C99.472 45.3133 98.7253 44.8933 98.072 44.632C97.4187 44.3707 96.784 44.24 96.168 44.24C95.6827 44.24 95.272 44.3333 94.936 44.52C94.6 44.688 94.432 44.9867 94.432 45.416C94.432 45.8267 94.6187 46.1347 94.992 46.34C95.3653 46.5267 95.944 46.732 96.728 46.956C97.9227 47.3107 98.9213 47.6747 99.724 48.048C100.545 48.4027 101.152 48.8507 101.544 49.392C101.955 49.9147 102.16 50.6147 102.16 51.492C102.16 52.9853 101.619 54.1613 100.536 55.02C99.4533 55.86 97.9973 56.28 96.168 56.28ZM103.534 51.604C103.534 50.6333 103.805 49.784 104.346 49.056C104.887 48.328 105.634 47.7587 106.586 47.348C107.538 46.9187 108.63 46.704 109.862 46.704C110.459 46.704 111.047 46.76 111.626 46.872C112.205 46.9653 112.709 47.1053 113.138 47.292V46.648C113.138 44.9867 112.158 44.156 110.198 44.156C109.377 44.156 108.602 44.296 107.874 44.576C107.165 44.856 106.409 45.2573 105.606 45.78L104.262 42.924C106.203 41.6547 108.331 41.02 110.646 41.02C112.849 41.02 114.557 41.552 115.77 42.616C117.002 43.6613 117.618 45.1827 117.618 47.18V51.016C117.618 51.464 117.683 51.7813 117.814 51.968C117.963 52.1547 118.215 52.2573 118.57 52.276V56C118.178 56.0747 117.823 56.1307 117.506 56.168C117.189 56.2053 116.909 56.224 116.666 56.224C115.826 56.224 115.182 56.056 114.734 55.72C114.305 55.384 114.034 54.9267 113.922 54.348L113.838 53.704C113.185 54.544 112.401 55.188 111.486 55.636C110.571 56.0653 109.629 56.28 108.658 56.28C107.687 56.28 106.81 56.0747 106.026 55.664C105.261 55.2533 104.654 54.7027 104.206 54.012C103.758 53.3027 103.534 52.5 103.534 51.604ZM112.438 52.164C112.905 51.7907 113.138 51.408 113.138 51.016V49.7C112.746 49.5507 112.317 49.4387 111.85 49.364C111.402 49.2707 110.991 49.224 110.618 49.224C109.778 49.224 109.087 49.4107 108.546 49.784C108.023 50.1573 107.762 50.6333 107.762 51.212C107.762 51.716 107.958 52.1547 108.35 52.528C108.761 52.8827 109.302 53.06 109.974 53.06C110.422 53.06 110.87 52.976 111.318 52.808C111.766 52.64 112.139 52.4253 112.438 52.164ZM130.188 45.136C129.106 45.1547 128.126 45.332 127.248 45.668C126.371 46.004 125.736 46.508 125.344 47.18V56H120.864V41.3H124.98V44.268C125.484 43.2787 126.138 42.504 126.94 41.944C127.743 41.384 128.583 41.0947 129.46 41.076C129.834 41.076 130.076 41.0853 130.188 41.104V45.136ZM141.595 55.216C140.979 55.4773 140.27 55.72 139.467 55.944C138.683 56.168 137.89 56.28 137.087 56.28C136.34 56.28 135.659 56.1587 135.043 55.916C134.427 55.6547 133.932 55.2347 133.559 54.656C133.186 54.0773 132.999 53.312 132.999 52.36V44.688H131.123V41.3H132.999V36.624H137.479V41.3H140.475V44.688H137.479V50.82C137.479 51.3053 137.6 51.66 137.843 51.884C138.086 52.0893 138.394 52.192 138.767 52.192C139.103 52.192 139.448 52.136 139.803 52.024C140.158 51.912 140.466 51.7907 140.727 51.66L141.595 55.216ZM143.313 56V51.436H146.981V56H143.313ZM150.04 39.62V35.56H154.52V39.62H150.04ZM150.04 56V41.3H154.52V56H150.04ZM164.587 56.28C162.907 56.28 161.479 55.9253 160.303 55.216C159.146 54.5067 158.259 53.5733 157.643 52.416C157.027 51.2587 156.719 50.008 156.719 48.664C156.719 47.3013 157.027 46.0413 157.643 44.884C158.259 43.7267 159.155 42.7933 160.331 42.084C161.507 41.3747 162.926 41.02 164.587 41.02C166.248 41.02 167.667 41.3747 168.843 42.084C170.019 42.7933 170.915 43.7267 171.531 44.884C172.147 46.0413 172.455 47.3013 172.455 48.664C172.455 50.008 172.147 51.2587 171.531 52.416C170.915 53.5733 170.019 54.5067 168.843 55.216C167.667 55.9253 166.248 56.28 164.587 56.28ZM161.311 48.664C161.311 49.8027 161.619 50.7267 162.235 51.436C162.87 52.1453 163.654 52.5 164.587 52.5C165.502 52.5 166.267 52.1453 166.883 51.436C167.518 50.7267 167.835 49.8027 167.835 48.664C167.835 47.5253 167.518 46.6013 166.883 45.892C166.267 45.1827 165.502 44.828 164.587 44.828C163.654 44.828 162.87 45.1827 162.235 45.892C161.619 46.6013 161.311 47.5253 161.311 48.664Z" fill="white"/>
<rect x="21" y="21" width="52" height="52" rx="20" fill="#EB8153"/>
<path d="M39.4316 47.7332L41.7246 47.1188L36.7904 33.0487C36.4347 31.7212 37.7858 30.9711 38.7363 31.6219L55.0082 44.0768C55.6203 44.4302 55.7669 45.9431 54.5601 46.2664L52.2672 46.8808L57.2014 60.9509C57.6131 62.0047 56.3589 63.1168 55.2554 62.3777L38.9835 49.9228C38.1214 49.119 38.4662 47.9919 39.4316 47.7332ZM40.6008 36.1668L44.1382 46.4721L51.3791 44.5319L40.6008 36.1668ZM53.3909 57.8328L49.7329 47.5599L42.492 49.5001L53.3909 57.8328Z" fill="white"/>
</svg>
